<mxfile host="Electron" agent="Mozilla/5.0 (X11; Linux x86_64) AppleWebKit/537.36 (KHTML, like Gecko) draw.io/26.0.4 Chrome/128.0.6613.186 Electron/32.2.5 Safari/537.36" version="26.0.4">
  <diagram name="Page-1" id="mfqqPAo1RyYfkp_bL9wX">
    <mxGraphModel dx="1114" dy="1198" grid="1" gridSize="10" guides="1" tooltips="1" connect="1" arrows="1" fold="1" page="1" pageScale="1" pageWidth="850" pageHeight="1100" math="0" shadow="0">
      <root>
        <mxCell id="0" />
        <mxCell id="1" parent="0" />
        <mxCell id="pFYMNlJJEcAsN8PSd3VI-21" value="&amp;nbsp;Amazon global network&amp;nbsp;" style="edgeStyle=orthogonalEdgeStyle;rounded=0;orthogonalLoop=1;jettySize=auto;html=1;entryX=0;entryY=0.5;entryDx=0;entryDy=0;" edge="1" parent="1" source="pFYMNlJJEcAsN8PSd3VI-1" target="pFYMNlJJEcAsN8PSd3VI-15">
          <mxGeometry x="0.5402" relative="1" as="geometry">
            <Array as="points">
              <mxPoint x="306" y="485" />
              <mxPoint x="306" y="255" />
            </Array>
            <mxPoint as="offset" />
          </mxGeometry>
        </mxCell>
        <mxCell id="pFYMNlJJEcAsN8PSd3VI-22" style="edgeStyle=orthogonalEdgeStyle;rounded=0;orthogonalLoop=1;jettySize=auto;html=1;" edge="1" parent="1" source="pFYMNlJJEcAsN8PSd3VI-1" target="pFYMNlJJEcAsN8PSd3VI-4">
          <mxGeometry relative="1" as="geometry" />
        </mxCell>
        <mxCell id="pFYMNlJJEcAsN8PSd3VI-23" value="&amp;nbsp;... Up to 10 AWS Regions&amp;nbsp;" style="edgeStyle=orthogonalEdgeStyle;rounded=0;orthogonalLoop=1;jettySize=auto;html=1;entryX=0;entryY=0.5;entryDx=0;entryDy=0;" edge="1" parent="1" source="pFYMNlJJEcAsN8PSd3VI-1" target="pFYMNlJJEcAsN8PSd3VI-9">
          <mxGeometry x="0.5019" relative="1" as="geometry">
            <Array as="points">
              <mxPoint x="306" y="485" />
              <mxPoint x="306" y="715" />
            </Array>
            <mxPoint as="offset" />
          </mxGeometry>
        </mxCell>
        <mxCell id="pFYMNlJJEcAsN8PSd3VI-1" value="AWS Global Accelerator&lt;div&gt;(AWS Edge)&lt;/div&gt;" style="sketch=0;points=[[0,0,0],[0.25,0,0],[0.5,0,0],[0.75,0,0],[1,0,0],[0,1,0],[0.25,1,0],[0.5,1,0],[0.75,1,0],[1,1,0],[0,0.25,0],[0,0.5,0],[0,0.75,0],[1,0.25,0],[1,0.5,0],[1,0.75,0]];outlineConnect=0;fontColor=#232F3E;fillColor=#8C4FFF;strokeColor=#ffffff;dashed=0;verticalLabelPosition=bottom;verticalAlign=top;align=center;html=1;fontSize=12;fontStyle=0;aspect=fixed;shape=mxgraph.aws4.resourceIcon;resIcon=mxgraph.aws4.global_accelerator;" vertex="1" parent="1">
          <mxGeometry x="166" y="446" width="78" height="78" as="geometry" />
        </mxCell>
        <mxCell id="pFYMNlJJEcAsN8PSd3VI-4" value="AWS Region 2" style="points=[[0,0],[0.25,0],[0.5,0],[0.75,0],[1,0],[1,0.25],[1,0.5],[1,0.75],[1,1],[0.75,1],[0.5,1],[0.25,1],[0,1],[0,0.75],[0,0.5],[0,0.25]];outlineConnect=0;gradientColor=none;html=1;whiteSpace=wrap;fontSize=12;fontStyle=0;container=1;pointerEvents=0;collapsible=0;recursiveResize=0;shape=mxgraph.aws4.group;grIcon=mxgraph.aws4.group_region;strokeColor=#00A4A6;fillColor=none;verticalAlign=top;align=left;spacingLeft=30;fontColor=#147EBA;dashed=1;" vertex="1" parent="1">
          <mxGeometry x="536" y="380" width="280" height="210" as="geometry" />
        </mxCell>
        <mxCell id="pFYMNlJJEcAsN8PSd3VI-3" value="" style="sketch=0;points=[[0,0,0],[0.25,0,0],[0.5,0,0],[0.75,0,0],[1,0,0],[0,1,0],[0.25,1,0],[0.5,1,0],[0.75,1,0],[1,1,0],[0,0.25,0],[0,0.5,0],[0,0.75,0],[1,0.25,0],[1,0.5,0],[1,0.75,0]];outlineConnect=0;fontColor=#232F3E;fillColor=#ED7100;strokeColor=#ffffff;dashed=0;verticalLabelPosition=bottom;verticalAlign=top;align=center;html=1;fontSize=12;fontStyle=0;aspect=fixed;shape=mxgraph.aws4.resourceIcon;resIcon=mxgraph.aws4.ec2;" vertex="1" parent="pFYMNlJJEcAsN8PSd3VI-4">
          <mxGeometry x="182" y="10" width="78" height="78" as="geometry" />
        </mxCell>
        <mxCell id="pFYMNlJJEcAsN8PSd3VI-7" style="edgeStyle=orthogonalEdgeStyle;rounded=0;orthogonalLoop=1;jettySize=auto;html=1;" edge="1" parent="pFYMNlJJEcAsN8PSd3VI-4" source="pFYMNlJJEcAsN8PSd3VI-2" target="pFYMNlJJEcAsN8PSd3VI-3">
          <mxGeometry relative="1" as="geometry" />
        </mxCell>
        <mxCell id="pFYMNlJJEcAsN8PSd3VI-8" style="edgeStyle=orthogonalEdgeStyle;rounded=0;orthogonalLoop=1;jettySize=auto;html=1;" edge="1" parent="pFYMNlJJEcAsN8PSd3VI-4" source="pFYMNlJJEcAsN8PSd3VI-2" target="pFYMNlJJEcAsN8PSd3VI-6">
          <mxGeometry relative="1" as="geometry" />
        </mxCell>
        <mxCell id="pFYMNlJJEcAsN8PSd3VI-2" value="Network Load Balancer" style="sketch=0;outlineConnect=0;fontColor=#232F3E;gradientColor=none;fillColor=#8C4FFF;strokeColor=none;dashed=0;verticalLabelPosition=bottom;verticalAlign=top;align=center;html=1;fontSize=12;fontStyle=0;aspect=fixed;pointerEvents=1;shape=mxgraph.aws4.network_load_balancer;" vertex="1" parent="pFYMNlJJEcAsN8PSd3VI-4">
          <mxGeometry x="32" y="66" width="78" height="78" as="geometry" />
        </mxCell>
        <mxCell id="pFYMNlJJEcAsN8PSd3VI-6" value="" style="sketch=0;points=[[0,0,0],[0.25,0,0],[0.5,0,0],[0.75,0,0],[1,0,0],[0,1,0],[0.25,1,0],[0.5,1,0],[0.75,1,0],[1,1,0],[0,0.25,0],[0,0.5,0],[0,0.75,0],[1,0.25,0],[1,0.5,0],[1,0.75,0]];outlineConnect=0;fontColor=#232F3E;fillColor=#ED7100;strokeColor=#ffffff;dashed=0;verticalLabelPosition=bottom;verticalAlign=top;align=center;html=1;fontSize=12;fontStyle=0;aspect=fixed;shape=mxgraph.aws4.resourceIcon;resIcon=mxgraph.aws4.ec2;" vertex="1" parent="pFYMNlJJEcAsN8PSd3VI-4">
          <mxGeometry x="182" y="120" width="78" height="78" as="geometry" />
        </mxCell>
        <mxCell id="pFYMNlJJEcAsN8PSd3VI-9" value="AWS Region 3" style="points=[[0,0],[0.25,0],[0.5,0],[0.75,0],[1,0],[1,0.25],[1,0.5],[1,0.75],[1,1],[0.75,1],[0.5,1],[0.25,1],[0,1],[0,0.75],[0,0.5],[0,0.25]];outlineConnect=0;gradientColor=none;html=1;whiteSpace=wrap;fontSize=12;fontStyle=0;container=1;pointerEvents=0;collapsible=0;recursiveResize=0;shape=mxgraph.aws4.group;grIcon=mxgraph.aws4.group_region;strokeColor=#00A4A6;fillColor=none;verticalAlign=top;align=left;spacingLeft=30;fontColor=#147EBA;dashed=1;" vertex="1" parent="1">
          <mxGeometry x="536" y="610" width="280" height="210" as="geometry" />
        </mxCell>
        <mxCell id="pFYMNlJJEcAsN8PSd3VI-10" value="" style="sketch=0;points=[[0,0,0],[0.25,0,0],[0.5,0,0],[0.75,0,0],[1,0,0],[0,1,0],[0.25,1,0],[0.5,1,0],[0.75,1,0],[1,1,0],[0,0.25,0],[0,0.5,0],[0,0.75,0],[1,0.25,0],[1,0.5,0],[1,0.75,0]];outlineConnect=0;fontColor=#232F3E;fillColor=#ED7100;strokeColor=#ffffff;dashed=0;verticalLabelPosition=bottom;verticalAlign=top;align=center;html=1;fontSize=12;fontStyle=0;aspect=fixed;shape=mxgraph.aws4.resourceIcon;resIcon=mxgraph.aws4.ec2;" vertex="1" parent="pFYMNlJJEcAsN8PSd3VI-9">
          <mxGeometry x="182" y="10" width="78" height="78" as="geometry" />
        </mxCell>
        <mxCell id="pFYMNlJJEcAsN8PSd3VI-11" style="edgeStyle=orthogonalEdgeStyle;rounded=0;orthogonalLoop=1;jettySize=auto;html=1;" edge="1" parent="pFYMNlJJEcAsN8PSd3VI-9" source="pFYMNlJJEcAsN8PSd3VI-13" target="pFYMNlJJEcAsN8PSd3VI-10">
          <mxGeometry relative="1" as="geometry" />
        </mxCell>
        <mxCell id="pFYMNlJJEcAsN8PSd3VI-12" style="edgeStyle=orthogonalEdgeStyle;rounded=0;orthogonalLoop=1;jettySize=auto;html=1;" edge="1" parent="pFYMNlJJEcAsN8PSd3VI-9" source="pFYMNlJJEcAsN8PSd3VI-13" target="pFYMNlJJEcAsN8PSd3VI-14">
          <mxGeometry relative="1" as="geometry" />
        </mxCell>
        <mxCell id="pFYMNlJJEcAsN8PSd3VI-13" value="Network Load Balancer" style="sketch=0;outlineConnect=0;fontColor=#232F3E;gradientColor=none;fillColor=#8C4FFF;strokeColor=none;dashed=0;verticalLabelPosition=bottom;verticalAlign=top;align=center;html=1;fontSize=12;fontStyle=0;aspect=fixed;pointerEvents=1;shape=mxgraph.aws4.network_load_balancer;" vertex="1" parent="pFYMNlJJEcAsN8PSd3VI-9">
          <mxGeometry x="32" y="66" width="78" height="78" as="geometry" />
        </mxCell>
        <mxCell id="pFYMNlJJEcAsN8PSd3VI-14" value="" style="sketch=0;points=[[0,0,0],[0.25,0,0],[0.5,0,0],[0.75,0,0],[1,0,0],[0,1,0],[0.25,1,0],[0.5,1,0],[0.75,1,0],[1,1,0],[0,0.25,0],[0,0.5,0],[0,0.75,0],[1,0.25,0],[1,0.5,0],[1,0.75,0]];outlineConnect=0;fontColor=#232F3E;fillColor=#ED7100;strokeColor=#ffffff;dashed=0;verticalLabelPosition=bottom;verticalAlign=top;align=center;html=1;fontSize=12;fontStyle=0;aspect=fixed;shape=mxgraph.aws4.resourceIcon;resIcon=mxgraph.aws4.ec2;" vertex="1" parent="pFYMNlJJEcAsN8PSd3VI-9">
          <mxGeometry x="182" y="120" width="78" height="78" as="geometry" />
        </mxCell>
        <mxCell id="pFYMNlJJEcAsN8PSd3VI-15" value="AWS Region 1" style="points=[[0,0],[0.25,0],[0.5,0],[0.75,0],[1,0],[1,0.25],[1,0.5],[1,0.75],[1,1],[0.75,1],[0.5,1],[0.25,1],[0,1],[0,0.75],[0,0.5],[0,0.25]];outlineConnect=0;gradientColor=none;html=1;whiteSpace=wrap;fontSize=12;fontStyle=0;container=1;pointerEvents=0;collapsible=0;recursiveResize=0;shape=mxgraph.aws4.group;grIcon=mxgraph.aws4.group_region;strokeColor=#00A4A6;fillColor=none;verticalAlign=top;align=left;spacingLeft=30;fontColor=#147EBA;dashed=1;" vertex="1" parent="1">
          <mxGeometry x="536" y="150" width="280" height="210" as="geometry" />
        </mxCell>
        <mxCell id="pFYMNlJJEcAsN8PSd3VI-16" value="" style="sketch=0;points=[[0,0,0],[0.25,0,0],[0.5,0,0],[0.75,0,0],[1,0,0],[0,1,0],[0.25,1,0],[0.5,1,0],[0.75,1,0],[1,1,0],[0,0.25,0],[0,0.5,0],[0,0.75,0],[1,0.25,0],[1,0.5,0],[1,0.75,0]];outlineConnect=0;fontColor=#232F3E;fillColor=#ED7100;strokeColor=#ffffff;dashed=0;verticalLabelPosition=bottom;verticalAlign=top;align=center;html=1;fontSize=12;fontStyle=0;aspect=fixed;shape=mxgraph.aws4.resourceIcon;resIcon=mxgraph.aws4.ec2;" vertex="1" parent="pFYMNlJJEcAsN8PSd3VI-15">
          <mxGeometry x="182" y="10" width="78" height="78" as="geometry" />
        </mxCell>
        <mxCell id="pFYMNlJJEcAsN8PSd3VI-17" style="edgeStyle=orthogonalEdgeStyle;rounded=0;orthogonalLoop=1;jettySize=auto;html=1;" edge="1" parent="pFYMNlJJEcAsN8PSd3VI-15" source="pFYMNlJJEcAsN8PSd3VI-19" target="pFYMNlJJEcAsN8PSd3VI-16">
          <mxGeometry relative="1" as="geometry" />
        </mxCell>
        <mxCell id="pFYMNlJJEcAsN8PSd3VI-18" style="edgeStyle=orthogonalEdgeStyle;rounded=0;orthogonalLoop=1;jettySize=auto;html=1;" edge="1" parent="pFYMNlJJEcAsN8PSd3VI-15" source="pFYMNlJJEcAsN8PSd3VI-19" target="pFYMNlJJEcAsN8PSd3VI-20">
          <mxGeometry relative="1" as="geometry" />
        </mxCell>
        <mxCell id="pFYMNlJJEcAsN8PSd3VI-19" value="Network Load Balancer" style="sketch=0;outlineConnect=0;fontColor=#232F3E;gradientColor=none;fillColor=#8C4FFF;strokeColor=none;dashed=0;verticalLabelPosition=bottom;verticalAlign=top;align=center;html=1;fontSize=12;fontStyle=0;aspect=fixed;pointerEvents=1;shape=mxgraph.aws4.network_load_balancer;" vertex="1" parent="pFYMNlJJEcAsN8PSd3VI-15">
          <mxGeometry x="32" y="66" width="78" height="78" as="geometry" />
        </mxCell>
        <mxCell id="pFYMNlJJEcAsN8PSd3VI-20" value="" style="sketch=0;points=[[0,0,0],[0.25,0,0],[0.5,0,0],[0.75,0,0],[1,0,0],[0,1,0],[0.25,1,0],[0.5,1,0],[0.75,1,0],[1,1,0],[0,0.25,0],[0,0.5,0],[0,0.75,0],[1,0.25,0],[1,0.5,0],[1,0.75,0]];outlineConnect=0;fontColor=#232F3E;fillColor=#ED7100;strokeColor=#ffffff;dashed=0;verticalLabelPosition=bottom;verticalAlign=top;align=center;html=1;fontSize=12;fontStyle=0;aspect=fixed;shape=mxgraph.aws4.resourceIcon;resIcon=mxgraph.aws4.ec2;" vertex="1" parent="pFYMNlJJEcAsN8PSd3VI-15">
          <mxGeometry x="182" y="120" width="78" height="78" as="geometry" />
        </mxCell>
        <mxCell id="pFYMNlJJEcAsN8PSd3VI-24" value="&lt;span style=&quot;color: rgb(35, 47, 62);&quot;&gt;Global static anycast IPs&lt;/span&gt;&lt;div style=&quot;color: rgb(35, 47, 62);&quot;&gt;4.3.2.1&lt;/div&gt;&lt;div style=&quot;color: rgb(35, 47, 62);&quot;&gt;9.8.7.6&lt;/div&gt;" style="text;html=1;align=center;verticalAlign=middle;resizable=0;points=[];autosize=1;strokeColor=none;fillColor=none;" vertex="1" parent="1">
          <mxGeometry x="130" y="370" width="150" height="60" as="geometry" />
        </mxCell>
        <mxCell id="pFYMNlJJEcAsN8PSd3VI-26" style="edgeStyle=orthogonalEdgeStyle;rounded=0;orthogonalLoop=1;jettySize=auto;html=1;" edge="1" parent="1" source="pFYMNlJJEcAsN8PSd3VI-25" target="pFYMNlJJEcAsN8PSd3VI-1">
          <mxGeometry relative="1" as="geometry" />
        </mxCell>
        <mxCell id="pFYMNlJJEcAsN8PSd3VI-25" value="Users" style="sketch=0;outlineConnect=0;fontColor=#232F3E;gradientColor=none;fillColor=#232F3D;strokeColor=none;dashed=0;verticalLabelPosition=bottom;verticalAlign=top;align=center;html=1;fontSize=12;fontStyle=0;aspect=fixed;pointerEvents=1;shape=mxgraph.aws4.users;" vertex="1" parent="1">
          <mxGeometry x="30" y="446" width="78" height="78" as="geometry" />
        </mxCell>
      </root>
    </mxGraphModel>
  </diagram>
</mxfile>
